<svg width="16" height="16" viewBox="0 0 16 16" fill="none" xmlns="http://www.w3.org/2000/svg">
<path d="M5.33332 14.6666C5.70151 14.6666 5.99999 14.3682 5.99999 14C5.99999 13.6318 5.70151 13.3333 5.33332 13.3333C4.96513 13.3333 4.66666 13.6318 4.66666 14C4.66666 14.3682 4.96513 14.6666 5.33332 14.6666Z" stroke="white" stroke-width="1.33333" stroke-linecap="round" stroke-linejoin="round"/>
<path d="M12.6667 14.6666C13.0349 14.6666 13.3333 14.3682 13.3333 14C13.3333 13.6318 13.0349 13.3333 12.6667 13.3333C12.2985 13.3333 12 13.6318 12 14C12 14.3682 12.2985 14.6666 12.6667 14.6666Z" stroke="white" stroke-width="1.33333" stroke-linecap="round" stroke-linejoin="round"/>
<path d="M1.36667 1.36664H2.7L4.47334 9.64664C4.53839 9.94988 4.70712 10.221 4.95048 10.4132C5.19384 10.6055 5.49661 10.7069 5.80667 10.7H12.3267C12.6301 10.6995 12.9243 10.5955 13.1607 10.4052C13.397 10.2149 13.5614 9.94966 13.6267 9.6533L14.7267 4.69997H3.41334" stroke="white" stroke-width="1.33333" stroke-linecap="round" stroke-linejoin="round"/>
</svg>
